<?xml version="1.0" encoding="UTF-8"?>
<svg version="1.1" xmlns="http://www.w3.org/2000/svg" width="512" height="512">
<path d="M0 0 C0.88550537 0.00563965 1.77101074 0.0112793 2.68334961 0.01708984 C15.21150615 0.25035444 27.02891575 4.74927646 36.37109375 13.37109375 C46.45235189 24.53008104 52.63251785 37.56132721 52.3359375 52.89453125 C50.9703668 68.54801757 45.06186271 81.91741583 33.125 92.3125 C27.88909605 95.96652936 22.190079 99.290807 16.125 101.3125 C17.12241211 101.32708252 18.11982422 101.34166504 19.14746094 101.35668945 C22.90512094 101.41536895 26.66222443 101.49258593 30.41943359 101.57495117 C32.03490051 101.60787727 33.65047356 101.6360058 35.26611328 101.65893555 C54.28642695 101.93604489 70.8658369 105.36026448 85.01953125 119.14453125 C85.71433594 119.85996094 86.40914062 120.57539063 87.125 121.3125 C87.68574219 121.85261719 88.24648438 122.39273438 88.82421875 122.94921875 C103.92863166 138.68793772 103.54924209 159.85302798 103.3125 180.125 C103.29742541 182.37824626 103.28374192 184.63150228 103.27148438 186.88476562 C103.23870028 192.36089282 103.1887214 197.83664993 103.125 203.3125 C31.77907393 230.04886378 -31.25010066 231.26106712 -102.875 203.3125 C-102.97771209 196.76967014 -103.04700588 190.22705337 -103.09472656 183.68359375 C-103.11465232 181.46476473 -103.14180297 179.24598689 -103.17675781 177.02734375 C-103.51035587 155.28459956 -101.76961044 136.99430135 -86.078125 120.5234375 C-85.35109375 119.79382813 -84.6240625 119.06421875 -83.875 118.3125 C-83.06289062 117.46558594 -83.06289062 117.46558594 -82.234375 116.6015625 C-68.6700158 103.65376509 -50.37219517 101.87687463 -32.625 101.625 C-30.99346359 101.59174637 -29.36195203 101.55724962 -27.73046875 101.52148438 C-23.77878543 101.43751559 -19.82714939 101.37028183 -15.875 101.3125 C-16.8225415 100.85649414 -17.77008301 100.40048828 -18.74633789 99.93066406 C-20.00944103 99.31348594 -21.27237134 98.695954 -22.53515625 98.078125 C-23.15733032 97.77986816 -23.77950439 97.48161133 -24.42053223 97.17431641 C-36.45108644 91.25570987 -44.11911236 81.34750733 -49.25 69.125 C-53.68796293 55.63820356 -52.59654441 40.92218308 -46.6875 28.0625 C-39.50214891 15.03905115 -28.57535536 5.51799439 -14.25 1.2265625 C-9.49792989 0.08876609 -4.86938198 -0.03240391 0 0 Z M-26.59765625 30.27734375 C-31.8014102 37.3478006 -34.36477609 45.64250331 -33.8125 54.4375 C-32.329851 64.09016276 -28.3845777 71.9554423 -20.875 78.3125 C-12.19585804 83.67082889 -3.69638578 86.80108633 6.546875 84.8515625 C15.76350415 82.41860139 23.87138301 77.40114811 29.125 69.3125 C34.12356996 59.81201287 35.27559944 50.68334805 32.3203125 40.33984375 C28.58540401 30.88051668 22.34905878 24.46188067 13.125 20.3125 C-1.13977424 14.72642987 -16.59848249 18.87239046 -26.59765625 30.27734375 Z M-75.0546875 134.9765625 C-81.98276517 143.86709994 -85.23979009 154.1392143 -85.0703125 165.3125 C-85.0674826 166.0336499 -85.06465271 166.7547998 -85.06173706 167.49780273 C-85.05066696 169.76954747 -85.02558895 172.04087727 -85 174.3125 C-84.9899531 175.86587967 -84.98083027 177.4192656 -84.97265625 178.97265625 C-84.95077111 182.75276062 -84.91633514 186.53256032 -84.875 190.3125 C-81.27370379 191.65367853 -77.66852141 192.9840839 -74.0625 194.3125 C-72.52625977 194.88484375 -72.52625977 194.88484375 -70.95898438 195.46875 C-69.97607422 195.8296875 -68.99316406 196.190625 -67.98046875 196.5625 C-67.07449951 196.89765625 -66.16853027 197.2328125 -65.23510742 197.578125 C-62.80953226 198.46105529 -62.80953226 198.46105529 -59.875 198.3125 C-59.875 180.8225 -59.875 163.3325 -59.875 145.3125 C-53.935 145.3125 -47.995 145.3125 -41.875 145.3125 C-41.875 164.4525 -41.875 183.5925 -41.875 203.3125 C-14.26412698 207.91431217 14.5866026 210.19709935 42.125 203.3125 C42.125 184.1725 42.125 165.0325 42.125 145.3125 C48.065 145.3125 54.005 145.3125 60.125 145.3125 C60.125 162.8025 60.125 180.2925 60.125 198.3125 C67.00472397 196.88129676 67.00472397 196.88129676 73.50390625 194.8046875 C74.19677734 194.54042969 74.88964844 194.27617187 75.60351562 194.00390625 C76.29123047 193.73449219 76.97894531 193.46507812 77.6875 193.1875 C78.41001953 192.91035156 79.13253906 192.63320313 79.87695312 192.34765625 C81.62847008 191.67488815 83.37706364 190.99451689 85.125 190.3125 C85.22532167 185.85088681 85.29713763 181.38990433 85.34472656 176.92749023 C85.36460437 175.41565488 85.39171673 173.9038939 85.42675781 172.39233398 C85.78525978 156.50753366 82.90881227 143.67244577 71.9375 131.625 C62.71901298 122.8552004 51.72820231 120.00275388 39.37939453 120.0378418 C38.43843933 120.03273087 37.49748413 120.02761993 36.52801514 120.02235413 C33.43788169 120.00852922 30.34797307 120.00940959 27.2578125 120.01171875 C25.09601764 120.00782786 22.93422354 120.00349238 20.77243042 119.99873352 C16.24848957 119.99128652 11.72462678 119.99155153 7.20068359 119.99682617 C1.42188328 120.00261798 -4.35659624 119.98568916 -10.13534355 119.9624815 C-14.59821419 119.94770348 -19.0610083 119.94687801 -23.52389908 119.94999123 C-25.65361288 119.94948004 -27.78333118 119.94428055 -29.91302109 119.93417931 C-32.8990907 119.92175357 -35.88454468 119.92864338 -38.87060547 119.94018555 C-39.73845673 119.93254181 -40.60630798 119.92489807 -41.50045776 119.91702271 C-54.59770109 120.02813932 -66.07158712 125.48429854 -75.0546875 134.9765625 Z " fill="#0083F0" transform="translate(255.875,271.6875)"/>
<path d="M0 0 C9.87022184 7.4178982 17.277409 17.54979393 20.09375 29.73046875 C22.31228282 45.81483171 20.1700875 60.45333049 10.53125 73.90234375 C7.13682196 78.32433674 3.86102959 81.40418362 -0.78125 84.58984375 C-2.38419922 85.70939453 -2.38419922 85.70939453 -4.01953125 86.8515625 C-7.63499203 89.16455915 -11.41898554 90.51120329 -15.46875 91.90234375 C-13.95075806 91.9163623 -13.95075806 91.9163623 -12.40209961 91.93066406 C-8.57160749 91.97117196 -4.74186854 92.03708234 -0.91186523 92.10986328 C0.73158946 92.13772659 2.37516955 92.15910929 4.01879883 92.17333984 C23.9549519 92.35607269 40.32115767 96.3545039 55.28125 110.5234375 C67.05847307 122.97539731 71.88522792 137.21002899 71.7265625 154.05859375 C71.7237326 155.20146851 71.72090271 156.34434326 71.71798706 157.52185059 C71.70685025 161.14879107 71.68175741 164.77547871 71.65625 168.40234375 C71.64621181 170.87109017 71.63708743 173.33984048 71.62890625 175.80859375 C71.60693219 181.83992907 71.57351957 187.87111834 71.53125 193.90234375 C49.61199752 202.5560439 27.81828401 209.89251377 4.53125 213.90234375 C3.42765137 214.09932861 3.42765137 214.09932861 2.30175781 214.30029297 C-43.26349951 222.06140823 -91.6321089 212.1390805 -133.46875 193.90234375 C-133.57113938 186.89563649 -133.64062563 179.8891259 -133.68847656 172.88183594 C-133.70844895 170.50383291 -133.73563646 168.12587809 -133.77050781 165.74804688 C-134.08587688 143.672212 -132.00821969 126.08018929 -116.109375 109.2890625 C-104.17940785 98.50620758 -90.18347474 92.93872908 -74.10546875 92.5859375 C-73.31348587 92.5651564 -72.52150299 92.54437531 -71.70552063 92.52296448 C-69.18918072 92.45786571 -66.67274128 92.39876952 -64.15625 92.33984375 C-62.44465139 92.29662075 -60.73306265 92.25300527 -59.02148438 92.20898438 C-54.83734016 92.10222528 -50.65309638 92.0008474 -46.46875 91.90234375 C-47.46998901 91.52686401 -47.46998901 91.52686401 -48.49145508 91.14379883 C-55.16512445 88.57205375 -60.10018812 85.62988331 -65.46875 80.90234375 C-66.0978125 80.35578125 -66.726875 79.80921875 -67.375 79.24609375 C-76.62275926 70.64730006 -81.86096972 58.90944826 -82.70703125 46.37109375 C-83.01635132 29.8306102 -78.41262811 16.43082722 -66.98046875 4.26171875 C-48.4052101 -13.18689124 -20.69219991 -14.06237149 0 0 Z M-57.46875 20.90234375 C-63.30913099 29.66291524 -65.40792551 37.41948768 -64.46875 47.90234375 C-62.37423196 58.07773883 -56.36550295 64.83908066 -48.53125 71.33984375 C-39.69304654 75.84913123 -31.18016539 77.26336228 -21.53125 74.83984375 C-11.92252474 71.62697294 -5.17604314 65.80425455 -0.46875 56.90234375 C-0.12972656 56.27714844 0.20929688 55.65195313 0.55859375 55.0078125 C4.0724014 47.31629806 3.54246032 38.14507074 1.09375 30.21484375 C-2.72465641 21.03727044 -9.31108293 14.75362065 -18.3046875 10.7421875 C-32.6911158 5.15900684 -47.5167455 9.468934 -57.46875 20.90234375 Z M-107.40625 127.27734375 C-110.67402825 131.7989458 -112.76773088 136.60723584 -114.46875 141.90234375 C-114.64672119 142.4430249 -114.82469238 142.98370605 -115.00805664 143.54077148 C-115.68288528 147.0000282 -115.59072173 150.43972351 -115.56640625 153.94921875 C-115.5649913 154.72042053 -115.56357635 155.49162231 -115.56211853 156.28619385 C-115.55653534 158.74161713 -115.54398595 161.19694817 -115.53125 163.65234375 C-115.52623283 165.32031118 -115.5216703 166.98828004 -115.51757812 168.65625 C-115.50657141 172.73831662 -115.48931836 176.82031456 -115.46875 180.90234375 C-112.97081261 181.86635357 -110.47061341 182.82361922 -107.96875 183.77734375 C-107.27265625 184.04675781 -106.5765625 184.31617188 -105.859375 184.59375 C-105.16328125 184.85800781 -104.4671875 185.12226563 -103.75 185.39453125 C-102.80737305 185.75587158 -102.80737305 185.75587158 -101.84570312 186.12451172 C-98.44251161 187.23816909 -94.94261142 188.0338784 -91.46875 188.90234375 C-91.46875 171.41234375 -91.46875 153.92234375 -91.46875 135.90234375 C-85.52875 135.90234375 -79.58875 135.90234375 -73.46875 135.90234375 C-73.46875 155.04234375 -73.46875 174.18234375 -73.46875 193.90234375 C-44.57890961 198.4638975 -17.28054879 199.66470351 11.53125 193.90234375 C11.53125 174.76234375 11.53125 155.62234375 11.53125 135.90234375 C17.47125 135.90234375 23.41125 135.90234375 29.53125 135.90234375 C29.53125 153.39234375 29.53125 170.88234375 29.53125 188.90234375 C39.24274708 186.5719272 39.24274708 186.5719272 48.28125 183.21484375 C49.28671875 182.77785156 50.2921875 182.34085937 51.328125 181.890625 C52.05515625 181.56449219 52.7821875 181.23835938 53.53125 180.90234375 C53.63113492 175.97686484 53.70319055 171.05199279 53.75097656 166.12573242 C53.770925 164.45472933 53.79809401 162.78379451 53.83300781 161.11303711 C54.134381 146.30586319 52.25373631 134.22638084 41.71875 122.96484375 C32.07155312 113.94004667 20.88002045 110.59812844 7.92504883 110.61181641 C6.99866608 110.60509918 6.07228333 110.59838196 5.11782837 110.59146118 C2.07459044 110.57256348 -0.9684259 110.56856087 -4.01171875 110.56640625 C-6.14390653 110.55997166 -8.27609345 110.55324281 -10.40827942 110.54623413 C-14.87254887 110.53428121 -19.33674107 110.53055117 -23.80102539 110.53173828 C-29.49217379 110.53194113 -35.18282095 110.5046648 -40.87385082 110.47019386 C-45.27765633 110.44783893 -49.68134295 110.4439034 -54.08519936 110.44495773 C-56.18174271 110.44261371 -58.27828995 110.4338586 -60.37477684 110.418293 C-79.01859262 110.29284823 -94.65158115 111.97715712 -107.40625 127.27734375 Z " fill="#00C3F0" transform="translate(440.46875,25.09765625)"/>
<path d="M0 0 C1.37744385 0.01244751 1.37744385 0.01244751 2.78271484 0.02514648 C16.30575875 0.36077405 27.51592708 5.52467781 37.4375 14.75 C48.10323375 26.18121704 52.08029623 40.11226622 51.83984375 55.359375 C51.31591097 69.43071256 44.50428949 80.81691531 34.625 90.4375 C28.7669828 95.80307442 23.01289558 98.64890976 15.625 101.4375 C16.65270508 101.45208252 17.68041016 101.46666504 18.73925781 101.48168945 C22.60872539 101.54034112 26.47765093 101.61755937 30.34667969 101.69995117 C32.01065167 101.73288998 33.67472706 101.76101487 35.33886719 101.78393555 C54.69367338 102.05760459 71.07696054 105.67584105 85.625 119.4375 C97.7253971 132.22934836 103.17277164 147.24450549 102.91796875 164.66796875 C102.91372391 165.78440262 102.90947906 166.90083649 102.90510559 168.05110168 C102.88846993 171.57599209 102.85084619 175.10028583 102.8125 178.625 C102.79743363 181.03189272 102.78374867 183.4387945 102.77148438 185.84570312 C102.73861614 191.70983496 102.68857012 197.57362483 102.625 203.4375 C69.27808392 216.30428504 36.56247683 225.93721309 0.5625 225.75 C-0.19335388 225.74784485 -0.94920776 225.7456897 -1.72796631 225.74346924 C-36.65083086 225.58494969 -70.39128947 217.37931019 -102.375 203.4375 C-102.47725696 196.27006355 -102.5468217 189.10281839 -102.59472656 181.93481445 C-102.61471822 179.50147471 -102.64192074 177.06818225 -102.67675781 174.63500977 C-103.03922615 148.64922802 -103.03922615 148.64922802 -98.375 138.4375 C-97.94018311 137.46828613 -97.50536621 136.49907227 -97.05737305 135.50048828 C-90.5779227 121.83506191 -78.97151171 111.71854065 -65.05859375 106.09765625 C-57.63408406 103.53779463 -50.86613037 102.29343915 -43.01171875 102.12109375 C-42.21973587 102.10031265 -41.42775299 102.07953156 -40.61177063 102.05812073 C-38.09543072 101.99302196 -35.57899128 101.93392577 -33.0625 101.875 C-31.35090139 101.831777 -29.63931265 101.78816152 -27.92773438 101.74414062 C-23.74359016 101.63738153 -19.55934638 101.53600365 -15.375 101.4375 C-16.04684326 101.18355469 -16.71868652 100.92960937 -17.41088867 100.66796875 C-18.3001001 100.32378906 -19.18931152 99.97960937 -20.10546875 99.625 C-20.98356201 99.28855469 -21.86165527 98.95210938 -22.76635742 98.60546875 C-26.78976586 96.80406623 -29.98748696 94.21465033 -33.375 91.4375 C-34.6434375 90.57125 -34.6434375 90.57125 -35.9375 89.6875 C-45.07929388 81.24892103 -50.87098334 68.83226922 -51.61328125 56.46875 C-52.02209123 39.86886495 -48.1899 26.64644054 -36.6875 14.1875 C-26.38004443 4.47815597 -14.0083454 -0.1646363 0 0 Z M-27.375 31.4375 C-32.96070803 40.1875885 -34.21799829 48.14342234 -33.375 58.4375 C-31.07624755 67.82954572 -25.97336969 74.96383569 -18 80.3125 C-9.81596893 85.16762113 -1.85777484 86.7445818 7.51171875 84.85546875 C17.11323825 82.16310925 24.09822543 76.59460534 29.625 68.3125 C33.86210035 60.69170821 34.81989504 52.58267447 33.16015625 44.046875 C30.28710153 34.32268979 24.21552666 26.29800923 15.484375 21.18359375 C-0.2841754 13.69092162 -16.36134179 18.88114853 -27.375 31.4375 Z M-75.1875 135.1875 C-81.93033459 143.34903974 -84.54245544 152.33307585 -84.47265625 162.703125 C-84.4712413 163.49652283 -84.46982635 164.28992065 -84.46836853 165.10736084 C-84.46278415 167.63411272 -84.45023454 170.16077504 -84.4375 172.6875 C-84.43248298 174.40364455 -84.42792043 176.11979049 -84.42382812 177.8359375 C-84.41281984 182.03649269 -84.39556596 186.23698117 -84.375 190.4375 C-82.63025701 191.22015953 -80.87877059 191.98778432 -79.125 192.75 C-78.15046875 193.17925781 -77.1759375 193.60851562 -76.171875 194.05078125 C-71.0386398 195.92557394 -65.6767157 197.11207107 -60.375 198.4375 C-60.375 180.9475 -60.375 163.4575 -60.375 145.4375 C-54.435 145.4375 -48.495 145.4375 -42.375 145.4375 C-42.375 164.5775 -42.375 183.7175 -42.375 203.4375 C-13.61615607 208.23064066 13.92818199 209.1768636 42.625 203.4375 C42.625 184.2975 42.625 165.1575 42.625 145.4375 C48.565 145.4375 54.505 145.4375 60.625 145.4375 C60.625 162.9275 60.625 180.4175 60.625 198.4375 C69.89595987 195.92414697 69.89595987 195.92414697 78.8125 192.75 C79.91980469 192.31300781 81.02710938 191.87601562 82.16796875 191.42578125 C82.97878906 191.09964844 83.78960937 190.77351563 84.625 190.4375 C84.72506747 185.67274872 84.79702322 180.90863016 84.84472656 176.14306641 C84.86464532 174.52739791 84.89179074 172.9117996 84.92675781 171.29638672 C85.23142457 156.84263727 83.56953327 144.73205595 73.625 133.4375 C63.57422994 123.67389479 53.06100399 120.30291279 39.359375 120.26049805 C37.97045799 120.25064125 37.97045799 120.25064125 36.55348206 120.24058533 C33.49398711 120.22090351 30.43454125 120.20919852 27.375 120.19921875 C26.32565277 120.19514322 25.27630554 120.1910677 24.19515991 120.18686867 C18.63645629 120.16602556 13.07777719 120.15171855 7.51904297 120.14233398 C1.804297 120.13129833 -3.91005653 120.09692599 -9.62466431 120.05716228 C-14.04132767 120.03089243 -18.45789919 120.02263276 -22.87463379 120.01905251 C-24.97955971 120.01421008 -27.08448218 120.00266382 -29.18933105 119.98401451 C-47.30361583 119.83354743 -61.99625952 121.34378956 -75.1875 135.1875 Z " fill="#00C2F0" transform="translate(102.375,15.5625)"/>
<path d="M0 0 C1.76586914 0.07006836 1.76586914 0.07006836 4.03515625 0.33984375 C5.24848633 0.4800293 5.24848633 0.4800293 6.48632812 0.62304688 C7.7615332 0.77870117 7.7615332 0.77870117 9.0625 0.9375 C10.34350586 1.08735352 10.34350586 1.08735352 11.65039062 1.24023438 C13.76750514 1.48861094 15.88383163 1.74368731 18 2 C13.98720812 42.76151749 0.63350504 81.96811081 -24 115 C-24.44843262 115.60392578 -24.89686523 116.20785156 -25.35888672 116.83007812 C-32.02907314 125.73647037 -39.31563124 133.96079747 -47 142 C-47.63550781 142.67675781 -48.27101563 143.35351562 -48.92578125 144.05078125 C-55.87143241 151.26166014 -63.98054837 157.25201377 -71.875 163.375 C-72.41012207 163.79177002 -72.94524414 164.20854004 -73.49658203 164.63793945 C-81.77102067 171 -81.77102067 171 -85 171 C-86.62946228 168.69404616 -88.1435897 166.39803293 -89.625 164 C-90.04523438 163.33226562 -90.46546875 162.66453125 -90.8984375 161.9765625 C-91.93864592 160.32168546 -92.97014051 158.66133712 -94 157 C-90.72273018 153.59235055 -87.39669007 150.6974787 -83.5625 147.9375 C-38.25801924 114.39100871 -10.33421389 65.55818431 -2 10 C-1.80067013 8.27071231 -1.61082666 6.54028564 -1.43359375 4.80859375 C-1 1 -1 1 0 0 Z " fill="#0092F0" transform="translate(460,254)"/>
<path d="M0 0 C1.07890323 2.15780646 1.29305004 3.69908257 1.578125 6.0859375 C6.40178191 44.20968786 19.75828877 79.89402473 44 110 C44.40653809 110.50805176 44.81307617 111.01610352 45.23193359 111.53955078 C57.22389769 126.43227995 70.57375059 138.72970105 86 150 C87.33483822 150.99799033 88.66915318 151.9966932 90 153 C88.61219205 156.89006773 86.7847773 159.96558708 84.375 163.3125 C83.74335938 164.19550781 83.11171875 165.07851563 82.4609375 165.98828125 C81.97882813 166.65214844 81.49671875 167.31601562 81 168 C62.31660928 165.09857932 38.25796911 134.91673941 27.64453125 120.6796875 C2.26105962 85.68314482 -16.15191794 44.79954486 -18 1 C-11.97968656 0.39034801 -6.05329744 -0.13451772 0 0 Z " fill="#0091F0" transform="translate(52,254)"/>
<path d="M0 0 C0.8494519 -0.00974854 1.69890381 -0.01949707 2.57409668 -0.02954102 C21.68738917 -0.20368609 40.10113884 0.06179018 58.84765625 4.23828125 C60.12938721 4.51913574 60.12938721 4.51913574 61.43701172 4.80566406 C70.78913125 6.92043743 79.89221218 9.79954104 88.97265625 12.86328125 C90.28145752 13.2970105 90.28145752 13.2970105 91.61669922 13.73950195 C92.41736816 14.02011475 93.21803711 14.30072754 94.04296875 14.58984375 C95.1105542 14.95843506 95.1105542 14.95843506 96.19970703 15.33447266 C97.84765625 16.23828125 97.84765625 16.23828125 98.84765625 19.23828125 C97.99822882 21.70249051 97.09541999 23.9938431 96.03515625 26.36328125 C95.76123047 27.00910156 95.48730469 27.65492187 95.20507812 28.3203125 C93.11350132 33.10535871 93.11350132 33.10535871 90.84765625 34.23828125 C88.01538088 33.2618437 85.25458459 32.2181058 82.47265625 31.11328125 C72.42691381 27.2876057 62.36487316 24.43970342 51.84765625 22.23828125 C51.08453125 22.07312012 50.32140625 21.90795898 49.53515625 21.73779297 C9.00232528 13.34839923 -31.98069036 21.13027829 -70.15234375 35.23828125 C-71.13904134 33.3463565 -72.11640395 31.44956147 -73.08984375 29.55078125 C-73.63511719 28.49503906 -74.18039063 27.43929687 -74.7421875 26.3515625 C-75.99940135 23.57594078 -76.71303944 21.23555999 -77.15234375 18.23828125 C-54.06937017 6.25501506 -25.91188285 0.24847916 0 0 Z " fill="#00DFF0" transform="translate(244.15234375,15.76171875)"/>
</svg>
